<?xml version="1.0" encoding="utf-8"?>
<!-- Generator: Adobe Illustrator 23.0.1, SVG Export Plug-In . SVG Version: 6.00 Build 0)  -->
<svg version="1.1" id="Capa_1" xmlns="http://www.w3.org/2000/svg" xmlns:xlink="http://www.w3.org/1999/xlink" x="0px" y="0px"
	 viewBox="0 0 128.8 35.5" style="enable-background:new 0 0 128.8 35.5;" xml:space="preserve">
<style type="text/css">
	.st0{fill:#575756;}
	.st1{fill:#E7343F;}
	.st2{opacity:0.65;fill:#244A9A;enable-background:new    ;}
	.st3{fill:#244A9A;}
	.st4{opacity:0.8;fill:#244A9A;enable-background:new    ;}
	.st5{fill:#FFFFFF;}
</style>
<title>logo</title>
<g>
	<g>
		<path class="st0" d="M48.6,9.8h2.6c1.6-0.1,3,1,3.1,2.6c0.1,1.6-1,3-2.6,3.1c-0.2,0-0.3,0-0.5,0h-2.6V9.8z M51.1,14.7
			c1.1,0.1,2-0.7,2.1-1.7c0-0.1,0-0.2,0-0.3c0-1.1-0.9-2-2-2c-0.1,0-0.1,0-0.2,0h-1.4v4H51.1z"/>
		<path class="st0" d="M55.2,9.9c0-0.3,0.3-0.6,0.6-0.6c0.3,0,0.6,0.2,0.6,0.5c0,0.3-0.3,0.6-0.6,0.6C55.4,10.4,55.2,10.2,55.2,9.9z
			 M55.3,11.2h1.1v4.5h-1.1V11.2z"/>
		<path class="st0" d="M60.2,11.2v1H60c-0.7,0-1.2,0.4-1.3,1.1c0,0.1,0,0.2,0,0.3v2.1h-1.1v-4.5h1v0.6C59,11.3,59.6,11.1,60.2,11.2z
			"/>
		<path class="st0" d="M65.1,13.7h-3.5c0.1,0.7,0.8,1.2,1.5,1.1c0.5,0.1,0.9-0.2,1.2-0.5l0.5,0.6c-0.5,0.5-1.1,0.7-1.8,0.7
			c-1.2,0.1-2.3-0.8-2.4-2c0-0.1,0-0.1,0-0.2c0-1.3,1.1-2.3,2.3-2.2c1.3,0,2.3,1.1,2.2,2.3l0,0V13.7z M61.6,13.1h2.6
			c-0.1-0.6-0.6-1.1-1.3-1.1C62.2,12,61.7,12.4,61.6,13.1z"/>
		<path class="st0" d="M65.6,13.4c0-1.2,0.9-2.2,2.1-2.3c0.1,0,0.2,0,0.3,0c0.8-0.1,1.6,0.3,1.9,1.1l-0.9,0.4
			c-0.2-0.4-0.6-0.6-1.1-0.6c-0.8,0-1.4,0.6-1.4,1.4c0,0.8,0.6,1.4,1.4,1.4c0.4,0,0.9-0.2,1.1-0.6l0.9,0.4c-0.4,0.7-1.1,1.1-1.9,1.1
			c-1.2,0.1-2.3-0.7-2.4-1.9C65.6,13.6,65.6,13.5,65.6,13.4z"/>
		<path class="st0" d="M70.3,13.4c0-1.2,0.9-2.2,2.1-2.3c0.1,0,0.2,0,0.3,0c0.8-0.1,1.6,0.3,1.9,1.1l-0.9,0.4
			c-0.2-0.4-0.6-0.6-1.1-0.6c-0.8,0-1.4,0.6-1.4,1.4c0,0.8,0.6,1.4,1.4,1.4l0,0c0.4,0,0.9-0.2,1.1-0.6l0.9,0.4
			c-0.4,0.7-1.1,1.1-1.9,1.1c-1.2,0.1-2.3-0.7-2.4-1.9C70.3,13.6,70.3,13.5,70.3,13.4z"/>
		<path class="st0" d="M75.3,9.9c0-0.3,0.3-0.6,0.6-0.6c0.3,0,0.6,0.3,0.6,0.6c0,0,0,0,0,0c0,0.3-0.3,0.6-0.6,0.6
			C75.5,10.4,75.3,10.2,75.3,9.9z M75.4,11.2h1.1v4.5h-1.1V11.2z"/>
		<path class="st0" d="M77.4,13.4c-0.1-1.2,0.8-2.2,2-2.2c0.1,0,0.2,0,0.3,0c1.2,0,2.2,1,2.2,2.2s-1,2.2-2.2,2.2
			c-1.2,0.1-2.2-0.7-2.3-1.9C77.3,13.6,77.3,13.5,77.4,13.4z M81.1,13.4c0.1-0.7-0.5-1.3-1.2-1.4c-0.1,0-0.1,0-0.2,0
			c-0.7,0-1.3,0.5-1.3,1.2c0,0.1,0,0.1,0,0.2c-0.1,0.7,0.4,1.3,1.1,1.4c0.1,0,0.1,0,0.2,0c0.7,0.1,1.3-0.5,1.4-1.2
			C81.1,13.5,81.1,13.5,81.1,13.4z M80.1,9.5h1.3l-1.5,1.2h-1L80.1,9.5z"/>
		<path class="st0" d="M87.5,13.1v2.6h-1.1v-2.4c0.1-0.6-0.4-1.1-1-1.2c0,0-0.1,0-0.1,0c-0.7,0-1.2,0.4-1.3,1.1c0,0.1,0,0.2,0,0.3
			v2.2H83v-4.5h1v0.5c0.4-0.4,0.9-0.7,1.5-0.6c1.1,0,2,0.8,2,1.9C87.5,13,87.5,13,87.5,13.1z"/>
		<path class="st0" d="M94.9,12.6H96V15c-0.7,0.5-1.5,0.8-2.3,0.7c-1.6,0.1-3.1-1.1-3.2-2.7c-0.1-1.6,1.1-3.1,2.7-3.2
			c0.2,0,0.3,0,0.5,0c0.9,0,1.7,0.3,2.3,1l-0.6,0.6c-0.4-0.5-1-0.8-1.6-0.7c-1.1,0-2,0.9-2,2c0,1.1,0.9,2,2,2c0.4,0,0.8-0.1,1.2-0.3
			V12.6z"/>
		<path class="st0" d="M101.4,13.7h-3.5c0.1,0.7,0.8,1.2,1.5,1.1c0.5,0.1,0.9-0.2,1.2-0.5l0.5,0.6c-0.5,0.5-1.1,0.7-1.8,0.7
			c-1.2,0.1-2.3-0.8-2.4-2c0-0.1,0-0.1,0-0.2c0-1.3,1.1-2.3,2.3-2.2c1.3,0,2.3,1.1,2.2,2.3l0,0L101.4,13.7z M97.8,13.1h2.6
			c-0.1-0.6-0.6-1.1-1.3-1.1C98.5,12,97.9,12.4,97.8,13.1z"/>
		<path class="st0" d="M106.6,13.1v2.6h-1.1v-2.4c0.1-0.6-0.4-1.1-1-1.2c0,0-0.1,0-0.1,0c-0.7,0-1.2,0.4-1.3,1.1c0,0.1,0,0.2,0,0.3
			v2.2h-1.1v-4.5h1v0.5c0.4-0.4,0.9-0.7,1.5-0.6C105.9,11.2,106.6,11.8,106.6,13.1z"/>
		<path class="st0" d="M112.1,13.7h-3.5c0.1,0.7,0.8,1.2,1.5,1.1c0.5,0.1,0.9-0.2,1.2-0.5l0.5,0.6c-0.5,0.5-1.1,0.7-1.8,0.7
			c-1.2,0.1-2.3-0.8-2.4-2c0-0.1,0-0.1,0-0.2c0-1.3,1.1-2.3,2.3-2.2c1.3,0,2.3,1.1,2.2,2.3l0,0C112.2,13.5,112.2,13.6,112.1,13.7z
			 M108.6,13.1h2.6c-0.1-0.6-0.6-1.1-1.3-1.1C109.2,12,108.7,12.4,108.6,13.1z"/>
		<path class="st0" d="M115.6,11.2v1h-0.2c-0.7,0-1.2,0.4-1.3,1.1c0,0.1,0,0.2,0,0.3v2.1H113v-4.5h1v0.6
			C114.4,11.3,115,11.1,115.6,11.2z"/>
		<path class="st0" d="M120.1,13.1v2.7h-1v-0.5c-0.3,0.5-0.8,0.7-1.4,0.6c-1.1,0-1.7-0.5-1.7-1.4c0-0.9,0.5-1.3,1.8-1.3h1.2v-0.1
			c0-0.6-0.3-1-1.1-1c-0.5,0-1,0.2-1.4,0.4l-0.4-0.9c0.6-0.4,1.2-0.5,1.9-0.5c1-0.1,1.9,0.5,2,1.5C120.1,12.8,120.1,12.9,120.1,13.1
			z M119.1,14.2v-0.5H118c-0.7,0-1,0.3-1,0.6c0,0.3,0.3,0.6,0.9,0.6C118.4,14.9,118.9,14.7,119.1,14.2z"/>
		<path class="st0" d="M121.3,9.5h1.1v6.2h-1.1V9.5z"/>
		<path class="st0" d="M52.9,18.6v6.2h-1v-0.5c-0.4,0.4-0.9,0.7-1.5,0.6c-1.2,0.1-2.2-0.8-2.2-2c0-0.1,0-0.1,0-0.2
			c-0.1-1.2,0.8-2.2,2-2.2c0.1,0,0.1,0,0.2,0c0.6,0,1.1,0.2,1.5,0.6v-2.2h1V18.6z M51.9,22.6c0.1-0.7-0.5-1.3-1.2-1.4
			c-0.1,0-0.1,0-0.2,0c-0.7,0-1.4,0.6-1.4,1.3c0,0,0,0.1,0,0.1c-0.1,0.7,0.5,1.3,1.2,1.4c0.1,0,0.1,0,0.2,0
			C51.3,24,51.9,23.4,51.9,22.6C51.9,22.6,51.9,22.6,51.9,22.6z"/>
		<path class="st0" d="M58.4,22.9h-3.5c0.1,0.7,0.8,1.2,1.5,1.1c0.5,0.1,0.9-0.2,1.2-0.5l0.5,0.6c-0.5,0.5-1.1,0.7-1.8,0.7
			c-1.2,0.1-2.3-0.8-2.4-2c0-0.1,0-0.1,0-0.2c0-1.3,1.1-2.3,2.3-2.2c1.3,0,2.3,1.1,2.2,2.3V22.9z M54.8,22.2h2.6
			c-0.1-0.6-0.6-1.1-1.3-1.1C55.4,21.2,54.9,21.6,54.8,22.2z"/>
		<path class="st0" d="M62.8,19.9h-2v-1h5v1h-1.9v4.9h-1.1V19.9z"/>
		<path class="st0" d="M68.8,20.3v1h-0.2c-0.7,0-1.2,0.4-1.3,1.1c0,0.1,0,0.2,0,0.3v2.1h-1.1v-4.5h1V21
			C67.6,20.5,68.2,20.3,68.8,20.3z"/>
		<path class="st0" d="M73.3,22.2v2.7h-1v-0.5C72,24.8,71.5,25.1,71,25c-1.1,0-1.7-0.5-1.7-1.4c0-0.9,0.5-1.3,1.8-1.3h1.2v-0.1
			c0-0.6-0.3-1-1.1-1c-0.5,0-1,0.2-1.4,0.4L69.4,21c0.6-0.4,1.2-0.5,1.9-0.5c0.9-0.2,1.8,0.4,2,1.2C73.3,21.9,73.3,22,73.3,22.2z
			 M72.2,23.4v-0.5h-1.1c-0.7,0-1,0.3-1,0.6c0,0.3,0.3,0.6,0.9,0.6C71.6,24.2,72,23.9,72.2,23.4z"/>
		<path class="st0" d="M78.9,22.2v2.6h-1.1v-2.4c0.1-0.6-0.4-1.1-1-1.2c0,0-0.1,0-0.1,0c-0.7,0-1.2,0.4-1.3,1.1c0,0.1,0,0.2,0,0.3
			v2.2h-1.1v-4.5h1v0.5c0.4-0.4,0.9-0.7,1.5-0.6C78.2,20.3,78.9,21,78.9,22.2z"/>
		<path class="st0" d="M79.7,24.4l0.4-0.7c0.5,0.3,1,0.4,1.6,0.4c0.6,0,1-0.2,1-0.5c0-0.9-2.8,0-2.8-1.8c0-0.9,0.7-1.4,2-1.4
			c0.6,0,1.2,0.1,1.7,0.4l-0.4,0.7c-0.4-0.2-0.8-0.3-1.3-0.3c-0.6,0-1,0.2-1,0.5c0,0.9,2.8,0.1,2.8,1.8c0,0.9-0.7,1.4-2,1.4
			C81,25,80.3,24.8,79.7,24.4z"/>
		<path class="st0" d="M89.1,22.6c0.1,1.2-0.8,2.2-2,2.2c-0.1,0-0.1,0-0.2,0c-0.5,0-1-0.2-1.4-0.6v2.1h-1.1v-6.1h1v0.5
			c0.4-0.4,0.9-0.7,1.5-0.6C88.1,20.2,89.1,21.3,89.1,22.6z M88,22.6c0.1-0.7-0.4-1.3-1.1-1.4c-0.1,0-0.1,0-0.2,0
			c-0.7,0-1.4,0.6-1.4,1.3c0,0,0,0.1,0,0.1c-0.1,0.7,0.5,1.3,1.2,1.4c0.1,0,0.1,0,0.2,0c0.7,0,1.3-0.5,1.3-1.2
			C88,22.7,88,22.6,88,22.6z"/>
		<path class="st0" d="M89.6,22.6c-0.1-1.2,0.8-2.2,2-2.2c0.1,0,0.2,0,0.3,0c1.2,0,2.2,1,2.2,2.2c0,1.2-1,2.2-2.2,2.2c0,0,0,0,0,0
			c-1.2,0.1-2.2-0.7-2.3-1.9C89.6,22.8,89.6,22.7,89.6,22.6z M93.3,22.6c0.1-0.7-0.5-1.3-1.2-1.4c-0.1,0-0.1,0-0.2,0
			c-0.7,0-1.3,0.5-1.3,1.2c0,0.1,0,0.1,0,0.2c-0.1,0.7,0.4,1.3,1.1,1.4c0.1,0,0.1,0,0.2,0c0.7,0.1,1.3-0.5,1.4-1.2
			C93.3,22.7,93.3,22.6,93.3,22.6z"/>
		<path class="st0" d="M97.8,20.3v1h-0.2c-0.7,0-1.2,0.4-1.3,1.1c0,0.1,0,0.2,0,0.3v2.1h-1.1v-4.5h1V21
			C96.6,20.5,97.2,20.3,97.8,20.3z"/>
		<path class="st0" d="M101.4,24.6c-0.3,0.2-0.6,0.3-1,0.3c-0.7,0.1-1.4-0.5-1.5-1.2c0-0.1,0-0.2,0-0.3v-2.1h-0.7v-0.9H99v-1.1h1.1
			v1.1h1.2v0.9H100v2.1c0,0.3,0.2,0.6,0.5,0.6c0.1,0,0.1,0,0.2,0c0.2,0,0.4-0.1,0.6-0.2L101.4,24.6z"/>
		<path class="st0" d="M106.2,22.9h-3.5c0.1,0.7,0.8,1.2,1.5,1.1c0.5,0.1,0.9-0.2,1.2-0.5l0.5,0.6c-0.5,0.5-1.1,0.7-1.8,0.7
			c-1.2,0.1-2.3-0.8-2.4-2c0-0.1,0-0.1,0-0.2c0-1.3,1.1-2.3,2.3-2.2c1.3,0,2.3,1.1,2.2,2.3l0,0C106.3,22.7,106.2,22.8,106.2,22.9z
			 M102.7,22.2h2.6c-0.1-0.6-0.6-1.1-1.3-1.1C103.3,21.2,102.8,21.6,102.7,22.2z"/>
	</g>
	<g>
		<path class="st1" d="M40.5,15.8h-0.4c-0.4,0-0.6-0.3-0.4-0.6l0.4-1c0-0.1,0-0.1,0.1-0.1c0-0.2-0.1-0.4-0.1-0.5
			c0,0.1-0.1,0.2-0.1,0.3l-0.3,0.6c-0.2,0.3-0.3,0.3-0.3-0.1v-2.9c-0.3-0.6-0.6-1.3-1-1.8c-2.1,0.6-4.1,1.6-5.8,3.1l0,0V13
			c-1,0.9-1.9,1.9-2.7,3.1l0,0c-2.4-4-6.8-6.5-11.5-6.6c-3.2,0-6.3,1.3-8.7,3.4l0,0V13c-1.2,0.8-2.1,1.8-2.9,3l-0.4,0.6h34.1
			C40.6,16.3,40.6,16.1,40.5,15.8z M8.5,15.8c-0.4,0-0.4-0.4-0.2-0.6l0,0C8.4,15,8.8,15.1,9,15.4S9,15.8,8.5,15.8z M9.6,14.9
			c0,0.4-0.2,0.5-0.4,0.2C9,14.7,9.1,14.3,9.3,14l0,0c0.1-0.2,0.3,0.1,0.3,0.4V14.9z M23,11l0.9,0.4c0.3,0.2,0.5,0.6,0.3,1l-0.1,0.2
			c-0.1,0.2-0.3,0.3-0.5,0.2c-0.1,0-0.2-0.1-0.2-0.2l-0.6-1.2c-0.2-0.2-0.3-0.5-0.3-0.7C22.3,10.7,22.6,10.8,23,11z M20,10.2
			c0.4,0,1.3,0.6,1.1,1l-0.2,0.3l-0.2,0.3c-0.2,0.3-0.4,0.3-0.6,0l-0.5-1.1C19.5,10.5,19.7,10.2,20,10.2C20,10.2,20,10.2,20,10.2z
			 M19.3,11.6c0-0.4,0.1-0.4,0.3-0.1l0.2,0.4l0.2,0.4c0.2,0.4,0.2,0.9,0,1.4L19.8,14l-0.2,0.3c-0.2,0.3-0.3,0.3-0.3-0.1V11.6z
			 M14,10.9l0.9-0.3c0.4-0.1,0.5,0.1,0.4,0.4l-0.7,1.5c-0.2,0.3-0.5,0.4-0.6,0l-0.2-0.4c-0.1-0.2-0.3-0.5-0.3-0.7
			C13.2,11.3,13.5,11,14,10.9z M11.4,15.8H11c-0.4,0-0.7-0.3-0.7-0.7c0,0,0,0,0,0v-1c0-0.4,0.2-0.5,0.4-0.1l1.1,1.2
			C11.9,15.5,11.8,15.8,11.4,15.8z M12.6,15c0,0.4-0.2,0.5-0.4,0.1l-1.3-1.6c-0.2-0.3-0.2-0.7,0.1-1c0,0,0,0,0,0l1-0.6
			c0.2-0.1,0.4-0.1,0.6,0.1c0.1,0.1,0.1,0.2,0.1,0.3V15z M13.2,14.5V13c0-0.4,0.1-0.4,0.3-0.1V13c0.2,0.4,0.2,0.9,0,1.4v0.2
			C13.4,14.9,13.2,14.9,13.2,14.5z M14.4,15.8h-0.3c-0.4,0-0.6-0.3-0.4-0.6l0.1-0.3l0.1-0.2c0.2-0.3,0.5-0.4,0.6,0l0.1,0.2l0.1,0.2
			C14.9,15.5,14.8,15.8,14.4,15.8z M15.6,15c0,0.4,0,0.7-0.1,0.7L15,15.1l-0.4-0.9c-0.2-0.4-0.2-0.9,0-1.4l0.5-1.2
			c0.2-0.3,0.3-0.3,0.3,0.1V15L15.6,15z M16.3,14.4v-2.6c0-0.4,0.1-0.4,0.3-0.1l0.3,0.6c0.2,0.4,0.2,0.9,0,1.4l-0.3,0.6
			C16.4,14.8,16.3,14.8,16.3,14.4z M17.8,15.8h-0.7c-0.4,0-0.6-0.3-0.4-0.6l0.4-1c0.2-0.3,0.5-0.3,0.6,0l0.4,1
			C18.4,15.5,18.2,15.8,17.8,15.8z M18.7,14.5c0,0.4-0.1,0.4-0.3,0.1L18,13.8c-0.2-0.4-0.2-0.9,0-1.4l0.3-0.6
			c0.2-0.3,0.3-0.3,0.3,0.1V14.5z M18.3,10.9l-0.2,0.5L17.9,12c-0.2,0.3-0.5,0.3-0.6,0l-0.5-1.1l-0.3-0.6c0.2-0.1,0.5-0.1,0.7-0.1
			c0.4-0.1,0.8-0.1,1.2-0.1h0.3c0.1,0,0.2,0,0.2,0.1C18.6,10.4,18.4,10.6,18.3,10.9z M20.9,15.8h-1.5c0.1-0.3,0.2-0.5,0.3-0.7
			l0.2-0.5l0.2-0.5c0.2-0.3,0.4-0.3,0.6,0l0.4,0.9l0.1,0.2C21.4,15.5,21.2,15.8,20.9,15.8z M21.6,14.4c0,0.4-0.1,0.4-0.3,0.1
			L21.1,14l-0.2-0.4c-0.2-0.4-0.2-0.9,0-1.4l0.2-0.3l0.2-0.3c0.2-0.3,0.3-0.3,0.3,0.1V14.4z M22.3,14.7v-2.3c0-0.4,0.1-0.4,0.3-0.1
			l0.1,0.1L23,13c0.2,0.4,0.2,0.9,0,1.3l-0.1,0.2l-0.1,0.2C22.5,15.2,22.3,15.1,22.3,14.7z M23.8,15.8h-0.4c-0.4,0-0.5-0.3-0.3-0.6
			l0.3-0.4c0.1-0.2,0.3-0.3,0.5-0.2c0.1,0,0.2,0.1,0.2,0.2l0.1,0.2l0.1,0.2C24.3,15.5,24.2,15.8,23.8,15.8z M24.7,14.7
			c0,0.4-0.1,0.4-0.3,0.1l-0.2-0.3c-0.2-0.4-0.2-0.9,0-1.3V13c0.2-0.3,0.4-0.3,0.4,0.1v1.6L24.7,14.7z M25.4,14.9v-1.8
			c0-0.4,0.3-0.5,0.6-0.3l0.7,0.5c0.3,0.3,0.3,0.7,0.1,1c0,0,0,0-0.1,0.1l-0.4,0.4l-0.4,0.4C25.6,15.4,25.4,15.3,25.4,14.9z
			 M28.1,15.8h-1.7c-0.4,0-0.5-0.2-0.2-0.5l0.3-0.3l0.3-0.3c0.3-0.3,0.7-0.3,1-0.1c0,0,0,0,0.1,0.1C28.2,14.9,28.6,15.8,28.1,15.8z
			 M31.5,15.8c-0.4,0-0.4-0.4-0.2-0.6l0,0c0.1-0.2,0.4-0.1,0.6,0.2C32.2,15.7,32,15.8,31.5,15.8z M32.6,14.9c0,0.4-0.2,0.5-0.4,0.2
			c-0.1-0.4-0.1-0.7,0.1-1.1l0,0c0.1-0.1,0.3,0.1,0.3,0.5V14.9z M37,10.9l1-0.3c0.4-0.1,0.5,0.1,0.4,0.4L38,11.8l-0.3,0.7
			c-0.2,0.3-0.5,0.4-0.6,0L37,12.3l-0.1-0.2c-0.1-0.2-0.3-0.5-0.3-0.7C36.2,11.3,36.6,11,37,10.9z M34.4,15.8H34
			c-0.4,0-0.7-0.3-0.7-0.7c0,0,0,0,0,0v-1c0-0.4,0.2-0.5,0.4-0.1l0.9,1.1l0.2,0.2C35,15.5,34.9,15.8,34.4,15.8z M35.6,15
			c0,0.4-0.2,0.5-0.4,0.1l-0.6-0.9l-0.6-0.9c-0.2-0.3-0.2-0.8,0.1-1.1l1-0.6c0.2-0.1,0.4-0.1,0.6,0.1c0.1,0.1,0.1,0.2,0.1,0.3V15z
			 M36.2,14.5V13c0-0.4,0.1-0.4,0.3-0.1V13c0.2,0.4,0.2,0.9,0,1.4v0.2C36.4,14.9,36.2,14.9,36.2,14.5z M37.4,15.8h-0.3
			c-0.4,0-0.6-0.3-0.4-0.6l0.1-0.2l0.1-0.2c0.2-0.3,0.5-0.4,0.6,0l0.1,0.2l0.1,0.2c0.1,0.2,0.1,0.4-0.1,0.6
			C37.6,15.8,37.5,15.8,37.4,15.8z M38.6,15c0,0.4,0,0.7-0.1,0.7s-0.2-0.3-0.4-0.6l-0.2-0.4l-0.2-0.4c-0.2-0.4-0.2-0.9,0-1.4
			l0.1-0.1l0.5-1c0.2-0.3,0.3-0.3,0.3,0.1V15z"/>
		<path class="st2" d="M24.2,1.5c-4.7,0-9.1,2-12.2,5.4c-1,1.1,0.3,1.8,1.8,1.3c1.5-0.5,3-0.7,4.6-0.7c1,0,2,0.1,3,0.3l-0.9-0.6
			l1.8,0.5c0.1-0.2,0.3-0.3,0.4-0.5c-0.5-0.6-1.1-0.6-0.9-1.7c0.3,1,0.7,0.6,1.5,1.2L24,6.3l-0.2-1.8L24.6,6c0.2,0,0.4-0.1,0.6-0.1
			c0.1-0.7-0.2-1.2,0.5-1.8c-0.4,1,0.1,1,0.2,1.8c0.2,0,0.4,0.1,0.6,0.2l1.2-1.5l-0.5,1.7c0.2,0.1,0.4,0.3,0.5,0.4
			c0.6-0.5,0.6-1.1,1.7-0.9c-1,0.3-0.6,0.7-1.2,1.5l0.3,0.6l1.8-0.2l-1.6,0.9c0,0.2,0.1,0.4,0.1,0.6c0.7,0.1,1.2-0.2,1.8,0.5
			c-1-0.4-1,0.1-1.8,0.2c0,0.2-0.1,0.4-0.2,0.6l1.5,1.2l-1.7-0.5c0.5,0.5,1,1.1,1.5,1.7l0,0c0.7-1,1.6-2,2.7-2.8l0,0
			c1.1-0.9,2.3-1.6,3.6-2c0.6-0.2,0.4-1.1,0.2-1.4C33.3,3.5,28.9,1.5,24.2,1.5z"/>
		<path class="st1" d="M35.4,29.8l-0.7-0.7l-6.4-6.9c-0.7-0.7-0.9-1.8-0.4-2.7c0.4-0.6,2.7-0.5,2.7-0.5h10.2v-0.2c0,0-11.2-0.1-15,0
			c-0.4,0-0.9,0.1-1.2,0.1c-0.7,0.1-1.4,0.5-1.9,1.1l-9.3,9.9C19.6,35.5,29.1,35.5,35.4,29.8z"/>
		<path class="st3" d="M20.7,18.4H7.9c0.2,3.8,1.8,7.5,4.4,10.3l9.1-8.8c0.3-0.4,0.3-0.9-0.1-1.3C21.1,18.5,20.9,18.4,20.7,18.4z"/>
		<path class="st4" d="M40.6,19.9H29.4c-0.4,0-0.8,0.3-0.8,0.8c0,0.2,0.1,0.5,0.3,0.6l7.6,7.5C38.7,26.3,40.2,23.2,40.6,19.9z"/>
		<path class="st5" d="M25.6,18.6c-0.5,0.2-1,0.6-1.2,1.2h0.3c0.1-0.6,0.6-1,1.2-1.2H25.6z"/>
		<path class="st5" d="M24.6,20.2V20h-0.3c0,0.1,0,0.2-0.1,0.2V23h0.4V20.2z"/>
		<polygon class="st5" points="24.7,24.7 24.3,24.7 24.2,26.2 24.8,26.2 		"/>
		<polygon class="st5" points="24.7,23.3 24.3,23.3 24.3,24.2 24.7,24.2 		"/>
		<polygon class="st5" points="24.2,30.2 24.1,34.1 24.9,34.1 24.8,30.2 		"/>
		<polygon class="st5" points="24.8,26.9 24.2,26.9 24.2,29.5 24.8,29.5 		"/>
	</g>
</g>
</svg>
